<svg width="20" height="20" viewBox="0 0 20 20" fill="none" xmlns="http://www.w3.org/2000/svg">
<path d="M9.08789 3.16408V4.74612C9.08789 4.83596 9.12695 4.9219 9.19531 4.98244L14.123 9.25783L3.125 9.25783C3.03906 9.25783 2.96875 9.32815 2.96875 9.41408V10.586C2.96875 10.6719 3.03906 10.7422 3.125 10.7422L14.123 10.7422L9.19531 15.0176C9.12695 15.0762 9.08789 15.1621 9.08789 15.2539V16.836C9.08789 16.9688 9.24609 17.041 9.3457 16.9531L16.8164 10.4707C16.884 10.4121 16.9382 10.3397 16.9754 10.2583C17.0125 10.1769 17.0318 10.0885 17.0318 9.99905C17.0318 9.90958 17.0125 9.82117 16.9754 9.73979C16.9382 9.65841 16.884 9.58596 16.8164 9.52737L9.3457 3.0469C9.24414 2.95901 9.08789 3.03127 9.08789 3.16408Z" fill="#BD00FF"/>
</svg>
