<svg width="112" height="33" viewBox="0 0 112 33" fill="none" xmlns="http://www.w3.org/2000/svg">
<g clip-path="url(#clip0_502_3440)">
<path fill-rule="evenodd" clip-rule="evenodd" d="M20.7385 9.34499L21.9249 10.5392L19.8026 12.693L18.6075 11.49L20.7385 9.34499ZM17.0898 13.0175L18.2863 14.2317L16.1553 16.3943L14.9501 15.1713L17.0898 13.0175ZM12.6402 12.8272L14.7799 10.6735L9.79365 5.61344C10.3559 5.17003 10.9535 4.76985 11.5813 4.41786L16.2881 9.15541L18.4191 7.01043L14.6063 3.17271C15.7657 2.85233 16.9865 2.68122 18.2469 2.68122C19.6578 2.68122 21.0189 2.8956 22.3 3.29377L9.32329 16.3554H13.5853L25.2507 4.61379C25.8105 4.949 26.3444 5.32317 26.8493 5.73257L7.6306 25.2354C5.69188 22.854 4.52847 19.8085 4.52847 16.4895C4.52847 13.1704 5.69186 10.1249 7.63058 7.74348L12.6402 12.8272ZM9.63548 2.45926C9.03213 2.83525 8.45484 3.24956 7.90696 3.69883L4.26205 0H0L5.74631 5.83133C3.32504 8.70558 1.86469 12.4259 1.86469 16.4895C1.86469 20.5531 3.32506 24.2734 5.74633 27.1475L4.35014e-05 32.9789H4.26209L7.90698 29.28C8.45486 29.7293 9.03217 30.1438 9.63552 30.5197L7.19225 32.9789H11.4543L12.4932 31.9331C14.2833 32.6091 16.2222 32.9789 18.2469 32.9789C20.417 32.9789 22.4886 32.5542 24.384 31.7829L25.5722 32.9789H29.8344L27.184 30.3114C27.7235 29.9572 28.2407 29.5723 28.7335 29.1585L32.4981 32.9789H36.7602L30.8694 27.0012C33.2178 24.1474 34.6292 20.4844 34.6292 16.4895C34.6292 12.4946 33.2178 8.83148 30.8696 5.97782L36.7602 0H32.4981L28.7335 3.82042C28.2407 3.40673 27.7235 3.02161 27.184 2.66761L29.8344 1.15353e-05H25.5722L24.384 1.19608C22.4886 0.424718 20.417 0 18.2469 0C16.2222 0 14.2833 0.369711 12.4932 1.04572L11.4543 1.15353e-05H7.19221L9.63548 2.45926ZM20.7385 23.8235L25.2505 28.3652C25.8103 28.0299 26.3444 27.6558 26.8493 27.2463L22.1129 22.44L24.2527 20.2864L28.9827 25.0866C30.8497 22.7276 31.9654 19.7397 31.9654 16.4895C31.9654 13.2392 30.8497 10.2513 28.983 7.89243L9.79367 27.3654C10.356 27.809 10.9535 28.2091 11.5814 28.561L23.4414 16.6235H27.7033L14.6064 29.8062C15.7658 30.1265 16.9865 30.2977 18.2469 30.2977C19.6578 30.2977 21.0189 30.0833 22.3 29.6852L18.6075 25.9685L20.7385 23.8235ZM18.4739 18.7472L20.6049 16.5847L21.9428 17.9423L19.803 20.096L18.4739 18.7472ZM18.4191 21.4889L17.0902 20.1514L14.9679 22.3051L16.2881 23.6339L18.4191 21.4889ZM12.6398 19.9618L14.7621 17.8081L13.5853 16.6235H9.32323L12.6398 19.9618ZM22.1308 15.0363L24.2531 12.8825L27.7033 16.3554H23.4412L22.1308 15.0363ZM43.7338 23.4665L49.6785 16.0762L50.3654 15.5279V15.1226L49.6785 14.5028L43.9231 8.3522V8.04228H46.7417L52.047 13.8115L52.4024 14.5028H52.876L53.2312 13.8115L58.4182 8.04228H61.2603V8.3522L55.576 14.5028L54.9128 15.0988V15.5518L55.576 16.0762L61.6393 23.4665V23.7764H58.7733L53.4207 17.2443L52.9471 16.4338H52.3313L51.8576 17.2443L46.5995 23.7764H43.7338V23.4665ZM65.0643 4.25181V4.20414L67.267 2.05856H67.3142L69.4934 4.15644V4.20414L67.267 6.32585H67.2196L65.0643 4.25181ZM67.3617 11.7374L67.4564 10.3309L67.3142 10.164H63.6195V8.04228H70.0143L70.0617 23.8002H67.4089L67.3617 11.7374ZM73.3504 19.2469L87.8927 10.2117V9.94946L85.7374 10.307H73.4215V8.04228H88.0823V12.5718L73.54 21.6308V21.8931L75.9558 21.4877H89.0534V23.7526L73.3504 23.7764V19.2469ZM100.767 23.967C99.7246 23.967 98.8325 23.8955 98.0902 23.7526C97.364 23.6096 96.7639 23.3632 96.2903 23.0135C95.8166 22.6638 95.4692 22.1871 95.2481 21.5832C95.0271 20.9792 94.9165 20.2164 94.9165 19.2945V11.5944L95.0351 10.164L94.8455 9.90178L93.6139 10.0686H90.5113V8.04228H93.6139L94.8455 8.20917L95.0351 7.94693L94.9165 4.72859L97.4744 4.70475L97.3561 7.94693L97.5455 8.18533L99.085 8.04228H105.504V10.0686H99.085L97.5455 9.92562L97.3561 10.164L97.4744 11.5944V19.0561C97.4744 19.5965 97.5139 20.0495 97.5929 20.415C97.6876 20.7646 97.8534 21.0427 98.0902 21.2493C98.3429 21.4402 98.6983 21.5752 99.156 21.6548C99.614 21.7341 100.206 21.7739 100.932 21.7739C102.606 21.7739 104.082 21.5037 105.361 20.9634L105.48 21.0825V23.0373C104.864 23.3552 104.169 23.5936 103.396 23.7526C102.638 23.8955 101.761 23.967 100.767 23.967ZM107.8 7.37886H108.162V4.84212H108.927V4.52407H107.027V4.84212H107.8V7.37886ZM111.609 4.52407L110.635 5.92274L109.66 4.52407H109.333V7.37886H109.694V5.19084L110.619 6.52818H110.65L111.575 5.20617V7.37886H111.936V4.52407H111.609Z" fill="white"/>
</g>
<defs>
<clipPath id="clip0_502_3440">
<rect width="112" height="33" fill="white"/>
</clipPath>
</defs>
</svg>
